<svg xmlns="http://www.w3.org/2000/svg" width="51.581" height="40.199" viewBox="0 0 51.581 40.199"><defs><style>.a{fill:#772ce8;}</style></defs><g transform="translate(-1.027 -56.489)"><g transform="translate(1.027 69.467)"><path class="a" d="M10,182.795H55.574v6.383H10Z" transform="translate(-10 -182.795)"/></g><g transform="translate(1.028 56.489)"><path class="a" d="M47.384,56.489H9.08a4.2,4.2,0,0,0-4.2,4.2v.688H4.2a4.2,4.2,0,0,0-4.2,4.2v26.9a4.2,4.2,0,0,0,4.2,4.2H42.5a4.2,4.2,0,0,0,4.2-4.2V91.8h.685a4.2,4.2,0,0,0,4.2-4.2v-26.9A4.2,4.2,0,0,0,47.384,56.489Zm-2.7,36A2.188,2.188,0,0,1,42.5,94.673H4.2a2.188,2.188,0,0,1-2.183-2.188v-26.9A2.188,2.188,0,0,1,4.2,63.394H42.5a2.188,2.188,0,0,1,2.183,2.188Zm4.883-4.891a2.188,2.188,0,0,1-2.183,2.188H46.7v-24.2a4.2,4.2,0,0,0-4.2-4.2H6.9v-.688A2.188,2.188,0,0,1,9.08,58.5h38.3a2.188,2.188,0,0,1,2.183,2.188Z" transform="translate(0 -56.489)"/><path class="a" d="M67.18,298.444H56.933a1.007,1.007,0,0,0-1.007,1.007v7.731a1.008,1.008,0,0,0,1.007,1.007H67.18a1.008,1.008,0,0,0,1.007-1.007v-7.731A1.007,1.007,0,0,0,67.18,298.444Zm-1.007,7.731H57.941v-5.716h8.231Z" transform="translate(-50.292 -274.068)"/><path class="a" d="M308.838,294.769a5.243,5.243,0,1,0,5.239,5.243A5.247,5.247,0,0,0,308.838,294.769Zm0,8.472a3.228,3.228,0,1,1,3.224-3.228A3.23,3.23,0,0,1,308.838,303.241Z" transform="translate(-273.013 -270.764)"/></g></g></svg>