<svg xmlns="http://www.w3.org/2000/svg" width="53.733" height="52" viewBox="0 0 53.733 52"><defs><style>.a{fill:#5c5e64;}</style></defs><g transform="translate(-8 -16)"><path class="a" d="M57.4,246.933v-2.6A4.338,4.338,0,0,0,53.067,240H38.333a4.328,4.328,0,0,0-3.467,1.737A4.328,4.328,0,0,0,31.4,240H16.667a4.338,4.338,0,0,0-4.333,4.333v2.6A4.338,4.338,0,0,0,8,251.267v15.6a.867.867,0,0,0,.867.867h52a.867.867,0,0,0,.867-.867v-15.6A4.338,4.338,0,0,0,57.4,246.933ZM16.667,266H9.733V251.267a2.6,2.6,0,0,1,2.6-2.6h1.733a2.6,2.6,0,0,1,2.6,2.6Zm-2.6-19.067v-2.6a2.6,2.6,0,0,1,2.6-2.6H31.4a2.6,2.6,0,0,1,2.6,2.6v10.4a4.312,4.312,0,0,0-2.6-.869H21a4.312,4.312,0,0,0-2.6.869v-3.469A4.338,4.338,0,0,0,14.067,246.933ZM34,258.2v2.6H18.4v-2.6a2.6,2.6,0,0,1,2.6-2.6H31.4A2.6,2.6,0,0,1,34,258.2ZM51.333,266H18.4v-3.467H51.333Zm0-5.2h-15.6v-2.6a2.6,2.6,0,0,1,2.6-2.6h10.4a2.6,2.6,0,0,1,2.6,2.6Zm0-9.533v3.469a4.312,4.312,0,0,0-2.6-.869h-10.4a4.312,4.312,0,0,0-2.6.869v-10.4a2.6,2.6,0,0,1,2.6-2.6H53.067a2.6,2.6,0,0,1,2.6,2.6v2.6A4.338,4.338,0,0,0,51.333,251.267ZM60,266H53.067V251.267a2.6,2.6,0,0,1,2.6-2.6H57.4a2.6,2.6,0,0,1,2.6,2.6Z" transform="translate(0 -199.733)"/><path class="a" d="M154.867,16h-26a.867.867,0,0,0-.867.867V35.933a.867.867,0,0,0,.867.867h26a.867.867,0,0,0,.867-.867V16.867A.867.867,0,0,0,154.867,16ZM154,35.067H129.733V17.733H154Z" transform="translate(-107)"/><path class="a" d="M173.667,40h-20.8a.867.867,0,0,0-.867.867V54.733a.867.867,0,0,0,.867.867h20.8a.867.867,0,0,0,.867-.867V40.867A.867.867,0,0,0,173.667,40ZM156.45,53.867l2.483-2.979,2.483,2.979Zm7.223,0L161.867,51.7l3.531-4.237,4.8,6.4Zm9.127,0h-.433l-6.24-8.32a.867.867,0,0,0-1.36-.035l-4.028,4.834-1.14-1.367a.867.867,0,0,0-1.332,0l-4.073,4.888h-.46V41.733H172.8Z" transform="translate(-128.4 -21.4)"/><path class="a" d="M194.6,69.2a2.6,2.6,0,1,0-2.6-2.6A2.6,2.6,0,0,0,194.6,69.2Zm0-3.467a.867.867,0,1,1-.867.867A.867.867,0,0,1,194.6,65.733Z" transform="translate(-164.067 -42.8)"/></g></svg>