<svg xmlns="http://www.w3.org/2000/svg" width="73.352" height="41.465" viewBox="0 0 73.352 41.465"><defs><style>.a{fill:#5c5e64;stroke:#fff;stroke-width:0.4px;}</style></defs><g transform="translate(748.635 -170.271)"><g transform="translate(-748.435 170.47)"><path class="a" d="M-675.484,200.6a7.359,7.359,0,0,1-.665,3.256,4.925,4.925,0,0,1-.354.644,5.381,5.381,0,0,1-4.577,2.457c-1.258.033-2.518-.014-3.775.027a.978.978,0,0,0-.7.4,7.969,7.969,0,0,1-14.012-.028.9.9,0,0,0-.646-.374q-11.72-.029-23.44,0a.961.961,0,0,0-.68.429,7.951,7.951,0,0,1-13.956-.039.772.772,0,0,0-.792-.415,38.122,38.122,0,0,1-4.641-.135,5.426,5.426,0,0,1-4.685-5.294q-.054-4.1,0-8.194a5.671,5.671,0,0,1,4.317-5.448c1.146-.3,2.295-.6,3.451-.857a3.849,3.849,0,0,0,2.632-1.99c1.7-3.018,3.43-6.019,5.147-9.027a10.279,10.279,0,0,1,9.517-5.535c6.127,0,12.254-.016,18.382,0a10.191,10.191,0,0,1,9.349,5.453c1.679,2.913,3.357,5.827,5,8.763A4.432,4.432,0,0,0-687.5,186.9a29.419,29.419,0,0,1,5.673,1.254,9.517,9.517,0,0,1,6.062,7.019,7.434,7.434,0,0,1,.2,1.586Zm-9.138,4.085h.688c1.045,0,2.094.046,3.134-.029a3.259,3.259,0,0,0,3-2.868c.126-1.285.026-2.592.026-3.948-.491,0-.938.015-1.384,0a5.723,5.723,0,0,1-5.414-5.494A1.167,1.167,0,0,1-683.279,191c.606-.013,1.213,0,1.819,0a3.279,3.279,0,0,0-1.387-.84,32.516,32.516,0,0,0-4.172-.854,7,7,0,0,1-5.893-3.975c-1.487-2.861-3.162-5.624-4.781-8.415a7.859,7.859,0,0,0-7.212-4.155c-6.127-.011-12.254.012-18.382-.009a8.132,8.132,0,0,0-7.629,4.44c-1.7,3.02-3.439,6.014-5.149,9.026a5.919,5.919,0,0,1-3.89,2.982c-1.221.3-2.444.589-3.649.941a8.979,8.979,0,0,0-1.379.665l.085.194c.661,0,1.322-.009,1.982,0,1.007.017,1.488.616,1.256,1.578q-.5,2.074-1.035,4.14c-.226.882-.541,1.116-1.46,1.122-.654,0-1.307,0-1.981,0,0,1.27-.032,2.434.008,3.595a3.326,3.326,0,0,0,2.99,3.2c1.269.1,2.552.02,3.9.02a8.012,8.012,0,0,1,1.836-6.332,7.731,7.731,0,0,1,5.991-2.816,7.621,7.621,0,0,1,5.454,2.066,8.018,8.018,0,0,1,2.576,7.046H-700.5a8.091,8.091,0,0,1,7.989-9.132A8.1,8.1,0,0,1-684.623,204.681Zm-41-1.134a5.7,5.7,0,0,0-5.633-5.7,5.7,5.7,0,0,0-5.759,5.577,5.7,5.7,0,0,0,5.59,5.817A5.722,5.722,0,0,0-725.623,203.547Zm33.065-5.7a5.7,5.7,0,0,0-5.693,5.715,5.694,5.694,0,0,0,5.658,5.677,5.714,5.714,0,0,0,5.733-5.756A5.693,5.693,0,0,0-692.558,197.844Zm10.528-4.564c.568,1.666,2.019,2.449,4.065,2.211-.287-.647-.538-1.276-.85-1.873a.745.745,0,0,0-.542-.323C-680.226,193.261-681.1,193.28-682.03,193.28Zm-62.714,2.263.536-2.212h-1.876v2.212Z" transform="translate(748.435 -170.47)"/><path class="a" d="M-642.813,208.146c-2.705,0-5.411,0-8.116,0a1.39,1.39,0,0,1-1.369-.563,1.359,1.359,0,0,1,.2-1.523q2.606-4.326,5.2-8.66a5.729,5.729,0,0,1,5.25-2.945c2.349.008,4.7,0,7.048,0,1.128,0,1.513.374,1.514,1.476q.005,5.375,0,10.75c0,1.064-.394,1.452-1.465,1.454q-4.129.006-8.258,0Zm7.43-11.4c-2.093,0-4.127.026-6.16-.009a3.659,3.659,0,0,0-3.463,1.932c-1.312,2.224-2.651,4.433-3.975,6.651-.091.152-.155.319-.233.484h13.831Z" transform="translate(666.166 -191.034)"/><path class="a" d="M-498.522,196.745v9.063h13.89c-.45-.751-.883-1.47-1.313-2.192a4.513,4.513,0,0,1-.413-.746,1.066,1.066,0,0,1,.491-1.406.979.979,0,0,1,1.4.262c1.016,1.6,2,3.225,2.923,4.881a1.079,1.079,0,0,1-.9,1.523,4.28,4.28,0,0,1-.64.018l-16.1,0c-1.306,0-1.636-.331-1.636-1.641q0-5.236,0-10.472c0-1.214.353-1.567,1.565-1.568q3.491,0,6.981,0a6.225,6.225,0,0,1,5.945,4.1,1.134,1.134,0,0,1-.519,1.464,1.056,1.056,0,0,1-1.444-.357c-.307-.42-.544-.89-.826-1.329a3.406,3.406,0,0,0-2.508-1.573,5.219,5.219,0,0,0-.711-.022C-494.377,196.744-496.414,196.745-498.522,196.745Z" transform="translate(536.18 -191.037)"/><path class="a" d="M-650.2,298.252c.4,0,.8-.027,1.2.006a1.12,1.12,0,0,1,1.059,1.121,1.1,1.1,0,0,1-1.05,1.128,24.022,24.022,0,0,1-2.478,0,1.1,1.1,0,0,1-1.021-1.153,1.113,1.113,0,0,1,1.083-1.1c.4-.029.8-.005,1.2-.005Z" transform="translate(666.19 -279.996)"/><path class="a" d="M-498.5,300.463c-.4,0-.8.025-1.2-.006a1.124,1.124,0,0,1-1.077-1.106,1.11,1.11,0,0,1,1.1-1.153c.778-.034,1.559-.035,2.337,0a1.109,1.109,0,0,1,1.113,1.141,1.134,1.134,0,0,1-1.135,1.125C-497.743,300.482-498.122,300.463-498.5,300.463Z" transform="translate(536.144 -279.937)"/><path class="a" d="M-645.658,381.556a3.431,3.431,0,0,1-3.465,3.405,3.431,3.431,0,0,1-3.367-3.43,3.421,3.421,0,0,1,3.464-3.4A3.426,3.426,0,0,1-645.658,381.556Zm-3.414-1.146a1.147,1.147,0,0,0-1.139,1.115,1.146,1.146,0,0,0,1.1,1.157,1.15,1.15,0,0,0,1.175-1.15A1.146,1.146,0,0,0-649.072,380.409Z" transform="translate(666.19 -348.476)"/><path class="a" d="M-374.188,381.558a3.431,3.431,0,0,1-3.467,3.4,3.431,3.431,0,0,1-3.366-3.431,3.426,3.426,0,0,1,3.467-3.4A3.426,3.426,0,0,1-374.188,381.558Zm-3.451,1.123a1.152,1.152,0,0,0,1.168-1.086,1.147,1.147,0,0,0-1.138-1.186,1.147,1.147,0,0,0-1.132,1.121A1.146,1.146,0,0,0-377.638,382.681Z" transform="translate(433.484 -348.476)"/></g></g></svg>