<svg xmlns="http://www.w3.org/2000/svg" width="42.65" height="42.65" viewBox="0 0 42.65 42.65"><defs><style>.a{fill:#5c5e64;}</style></defs><path class="a" d="M373.666,376.833a.833.833,0,1,1-.833-.833A.833.833,0,0,1,373.666,376.833Z" transform="translate(-341.012 -344.679)"/><path class="a" d="M173.666,226.833a.833.833,0,1,1-.833-.833A.833.833,0,0,1,173.666,226.833Z" transform="translate(-157.672 -207.174)"/><path class="a" d="M.833,42.65h17.66a.833.833,0,0,0,.833-.833V2.5a2.5,2.5,0,0,0-2.5-2.5H2.5A2.5,2.5,0,0,0,0,2.5V41.817A.833.833,0,0,0,.833,42.65Zm.833-1.666V17.16H17.66V40.984ZM2.5,1.666H16.827a.834.834,0,0,1,.833.833v13H1.666V2.5A.834.834,0,0,1,2.5,1.666Z"/><path class="a" d="M172.833,68.83a.833.833,0,0,0,.833-.833V60.833a.833.833,0,1,0-1.666,0V68A.833.833,0,0,0,172.833,68.83Z" transform="translate(-157.672 -55.002)"/><path class="a" d="M172.833,266a.833.833,0,0,0-.833.833V273.5a.833.833,0,1,0,1.666,0v-6.664A.833.833,0,0,0,172.833,266Z" transform="translate(-157.672 -243.842)"/><path class="a" d="M272.825,0H252.833A.833.833,0,0,0,252,.833V13a.833.833,0,0,0,.833.833h19.992a.833.833,0,0,0,.833-.833V.833A.833.833,0,0,0,272.825,0ZM253.666,1.666H257v10.5h-3.332Zm18.326,10.5H258.664V1.666h13.328Z" transform="translate(-231.008 0)"/><path class="a" d="M352.833,47.164h8.33a.833.833,0,0,0,.833-.833v-5.5a.833.833,0,0,0-.833-.833h-8.33a.833.833,0,0,0-.833.833v5.5A.833.833,0,0,0,352.833,47.164Zm.833-5.5h6.664V45.5h-6.664Z" transform="translate(-322.678 -36.668)"/><path class="a" d="M271.159,186H254.5a2.5,2.5,0,0,0-2.5,2.5v23.824a.833.833,0,0,0,.833.833h19.992a.833.833,0,0,0,.833-.833V188.5A2.5,2.5,0,0,0,271.159,186Zm-16.66,1.666h16.66a.834.834,0,0,1,.833.833V191H260.33v-.833a.833.833,0,1,0-1.666,0V191H257v-.833a.833.833,0,1,0-1.666,0V191h-1.666v-2.5A.834.834,0,0,1,254.5,187.666Zm-.833,23.824V192.664h18.326V211.49Z" transform="translate(-231.008 -170.506)"/><path class="a" d="M308.664,306a6.664,6.664,0,1,0,6.664,6.664A6.672,6.672,0,0,0,308.664,306Zm0,11.662a5,5,0,1,1,4.927-5.831H312a.833.833,0,1,0,0,1.665h1.6A5.006,5.006,0,0,1,308.664,317.662Z" transform="translate(-276.843 -280.51)"/></svg>