<svg height="48" viewBox="0 0 34.12 48" width="34.12" xmlns="http://www.w3.org/2000/svg"><g fill="#772ce8"><path d="m162.936 322.362a16.077 16.077 0 0 1 -9.627-3.181v18.077l9.627-3.91 9.627 3.91v-18.077a16.077 16.077 0 0 1 -9.627 3.181z" transform="translate(-145.876 -289.258)"/><path d="m91.086 0a17.021 17.021 0 1 0 17.06 17.021 17.06 17.06 0 0 0 -17.06-17.021zm0 32.167a15.146 15.146 0 1 1 15.185-15.146 15.183 15.183 0 0 1 -15.185 15.146z" transform="translate(-74.026)"/><path d="m132.727 45.837a12.724 12.724 0 1 0 12.753 12.724 12.752 12.752 0 0 0 -12.753-12.724zm0 23.572a10.849 10.849 0 1 1 10.873-10.848 10.875 10.875 0 0 1 -10.873 10.848z" transform="translate(-115.667 -41.54)"/><path d="m199.5 121.223-2.455-.393-1.135-2.21a1.6 1.6 0 0 0 -2.849 0l-1.135 2.21-2.455.393a1.6 1.6 0 0 0 -.88 2.713l1.752 1.756-.383 2.449a1.6 1.6 0 0 0 2.3 1.677l2.221-1.123 2.221 1.123a1.6 1.6 0 0 0 2.3-1.677l-.383-2.449 1.752-1.756a1.6 1.6 0 0 0 -.88-2.713zm-2.536 3.481a.938.938 0 0 0 -.263.807l.375 2.393-2.168-1.1a.937.937 0 0 0 -.846 0l-2.168 1.1.375-2.393a.938.938 0 0 0 -.269-.811l-1.711-1.714 2.4-.384a.938.938 0 0 0 .686-.5l1.109-2.159 1.109 2.159a.938.938 0 0 0 .686.5l2.4.384z" transform="translate(-177.423 -106.71)"/></g></svg>