<svg height="40.965" viewBox="0 0 54.85 40.965" width="54.85" xmlns="http://www.w3.org/2000/svg"><g fill="#5c5e64" transform="translate(0 -64.806)"><path d="m51.656 89.784a10.575 10.575 0 0 0 -5.743-2.879l1.345-1.413a6.7 6.7 0 0 0 1.035-7.845l-2.533-4.647h2.082a1.872 1.872 0 0 0 1.424-.656l.115-.135a5.164 5.164 0 0 0 0-6.744 1.885 1.885 0 0 0 -1.9-.594s-7.978 1.983-8.2 1.983a3.008 3.008 0 0 0 -.116 6.015l.1 7.9a2.7 2.7 0 0 1 -.879 2.029l-3.986 3.633a2.688 2.688 0 0 1 -3.647 0l-1.617-1.48a8.175 8.175 0 0 1 -2.649-6.016v-1a.813.813 0 0 1 0-.323v-3.8a4.008 4.008 0 0 0 -4-4h-10.632a.812.812 0 0 0 -.107 1.616v5.372h-4.148a1.359 1.359 0 0 1 -1.358-1.358v-1.63a2.382 2.382 0 0 1 2.379-2.379.812.812 0 0 0 0-1.624h-.021a4.008 4.008 0 0 0 -3.982 4v1.63a2.986 2.986 0 0 0 1.916 2.784 18.408 18.408 0 0 0 -2.379 8.581.806.806 0 0 0 .01.145 14.434 14.434 0 0 0 -4.165 10.159.812.812 0 0 0 .812.812h1.815a8 8 0 0 0 15.988 0h11.985a.812.812 0 1 0 0-1.624h-8.8a19.6 19.6 0 0 0 .966-1.974h7.372a.812.812 0 1 0 0-1.624h-6.787a8.8 8.8 0 0 0 .153-5.218 6.769 6.769 0 0 0 -4.692-4.211 14.127 14.127 0 0 0 -8.515.026 14.105 14.105 0 0 0 -4.426 2.177 16.778 16.778 0 0 1 2.429-7.047h16.566v.508a9.8 9.8 0 0 0 3.177 7.214l1.617 1.48a4.3 4.3 0 0 0 5.84 0l3.975-3.627a4.33 4.33 0 0 0 1.407-3.248l-.1-7.7h3.158l2.926 5.374a5.079 5.079 0 0 1 -.784 5.948l-11.351 11.926h-.878a.812.812 0 0 0 0 1.624h2.383a8 8 0 0 0 15.988 0h1.815a.812.812 0 0 0 .812-.831 10.483 10.483 0 0 0 -3.194-7.3zm-26.79-15.971v2.987h-5.509v-5.366h3.13a2.382 2.382 0 0 1 2.379 2.379zm-11.494-2.379h4.361v5.366h-4.361zm-2.751 32.713a6.358 6.358 0 0 1 -6.369-6.227h3.138a3.233 3.233 0 0 0 6.462 0h3.138a6.358 6.358 0 0 1 -6.369 6.227zm1.6-6.227a1.608 1.608 0 0 1 -3.208 0zm-1.472-13.065a12.538 12.538 0 0 1 7.55-.045 5.244 5.244 0 0 1 3.662 3.177c.612 1.846-.018 4.07-.654 5.611a18.464 18.464 0 0 1 -1.4 2.7h-18.258a12.736 12.736 0 0 1 2.5-6.846 12.494 12.494 0 0 1 6.6-4.594zm37.145-18.418a.251.251 0 0 1 .254.079 3.547 3.547 0 0 1 0 4.633l-.115.135a.25.25 0 0 1 -.19.088h-1.665a5.224 5.224 0 0 0 .222-4.542zm-10 3.421a1.384 1.384 0 1 1 1.384 1.385 1.386 1.386 0 0 1 -1.388-1.384zm3.952 1.567a3 3 0 0 0 -.149-3.353l3.115-.821a3.509 3.509 0 0 1 -.548 3.98.809.809 0 0 0 -.147.194zm2.387 32.721a6.358 6.358 0 0 1 -6.373-6.226h3.14a3.233 3.233 0 0 0 6.462 0h3.138a6.357 6.357 0 0 1 -6.371 6.227zm1.6-6.227a1.608 1.608 0 0 1 -3.208 0zm-8.86-1.619 7.514-7.9a8.971 8.971 0 0 1 6.037 2.545 8.868 8.868 0 0 1 2.644 5.355z"/><path d="m71.89 326.782h6.862a.812.812 0 1 0 0-1.624h-6.862a.812.812 0 0 0 0 1.624z" transform="translate(-63.463 -232.461)"/><path d="m88.666 296.568h6.862a.812.812 0 1 0 0-1.624h-6.862a.812.812 0 1 0 0 1.624z" transform="translate(-78.442 -205.483)"/></g></svg>