<svg xmlns="http://www.w3.org/2000/svg" width="33.96" height="46.363" viewBox="0 0 33.96 46.363"><defs><style>.a{fill:#772ce8;}</style></defs><g transform="translate(-68.484 0)"><g transform="translate(68.484 17.334)"><path class="a" d="M102.409,200l-1.376-5.173v-.006a.884.884,0,0,0-.664-.656l-.041-.009L88.5,191.542a6.181,6.181,0,0,1-.763.324,2.921,2.921,0,0,0-1.366,1.064l9.611,2.121-10.516,2.354-10.53-2.357,9.842-2.187A3.443,3.443,0,0,0,83.3,191.7c-.323-.109.006-.131-.3-.274l-12.4,2.729h0a.9.9,0,0,0-.693.641l-.008.028L68.519,200a.935.935,0,0,0-.023.4.907.907,0,0,0,.687.73l.686.161v14.97a.905.905,0,0,0,.708.884l14.69,3.289a.9.9,0,0,0,.4,0l14.69-3.289a.905.905,0,0,0,.708-.884v-14.97l.686-.161a.908.908,0,0,0,.687-.73A.937.937,0,0,0,102.409,200Zm-2.906-3.88.921,3.462-12.361,2.9-1.37-3.491Zm-29,3.462.921-3.462,12.809,2.868-1.37,3.491Zm28.744,15.956L86.37,218.42V207.842a.906.906,0,1,0-1.811,0V218.42L71.68,215.536V201.716l11.535,2.7a.905.905,0,0,0,1.05-.551l1.2-3.056,1.2,3.057a.9.9,0,0,0,1.05.551l11.535-2.7Z" transform="translate(-68.484 -191.427)"/></g><g transform="translate(76.23 0)"><g transform="translate(0 0)"><path class="a" d="M163.3,0a9.237,9.237,0,0,0-2.995,17.987,2.593,2.593,0,0,1,1.354,1.049l1.6,2.487,1.6-2.486a2.611,2.611,0,0,1,1.364-1.053A9.237,9.237,0,0,0,163.3,0Zm-.039,13.062a3.674,3.674,0,1,1,3.674-3.674A3.674,3.674,0,0,1,163.262,13.063Z" transform="translate(-154.028 0)"/></g><path class="a" d="M210.007,62.258a4.58,4.58,0,1,1,4.579-4.58A4.585,4.585,0,0,1,210.007,62.258Zm0-7.349a2.769,2.769,0,1,0,2.768,2.769A2.772,2.772,0,0,0,210.007,54.909Z" transform="translate(-200.774 -48.29)"/></g></g></svg>