<svg xmlns="http://www.w3.org/2000/svg" width="46.694" height="46.694" viewBox="0 0 46.694 46.694"><defs><style>.a{fill:#5c5e64;}</style></defs><path class="a" d="M44.359,0H24.125A2.335,2.335,0,0,0,21.79,2.335V10.9H3.891A3.891,3.891,0,0,0,0,14.786V35.02a3.891,3.891,0,0,0,3.891,3.891h8.56v3.113H10.117a2.335,2.335,0,1,0,0,4.669H44.359a2.335,2.335,0,0,0,2.335-2.335V2.335A2.335,2.335,0,0,0,44.359,0ZM3.891,12.452H31.907a2.335,2.335,0,0,1,2.335,2.335V33.464H1.556V14.786A2.335,2.335,0,0,1,3.891,12.452ZM1.556,35.02H34.242a2.335,2.335,0,0,1-2.335,2.335H3.891A2.335,2.335,0,0,1,1.556,35.02Zm12.452,3.891H21.79v3.113H14.008Zm10.117,6.226H10.117a.778.778,0,0,1,0-1.556H25.681a.778.778,0,0,1,0,1.556Zm21.012-.778a.778.778,0,0,1-.778.778H27.876a2.335,2.335,0,0,0-2.195-3.113H23.347V38.911h8.561A3.891,3.891,0,0,0,35.8,35.02V14.786A3.891,3.891,0,0,0,31.907,10.9H23.347V2.335a.778.778,0,0,1,.778-.778H44.359a.778.778,0,0,1,.778.778Z"/><path class="a" d="M290.188,42.667H274.623a1.556,1.556,0,0,0-1.556,1.556V45.78a1.556,1.556,0,0,0,1.556,1.556h15.565a1.556,1.556,0,0,0,1.556-1.556V44.223A1.556,1.556,0,0,0,290.188,42.667ZM274.623,45.78V44.223h15.565V45.78Z" transform="translate(-248.164 -38.776)"/><path class="a" d="M420.468,124.136a2.335,2.335,0,1,0-2.335-2.335A2.335,2.335,0,0,0,420.468,124.136Zm0-3.113a.778.778,0,1,1-.778.778A.778.778,0,0,1,420.468,121.023Z" transform="translate(-380 -108.572)"/><path class="a" d="M422.8,190.068a2.335,2.335,0,1,0-2.335,2.335A2.335,2.335,0,0,0,422.8,190.068Zm-2.335.778a.778.778,0,1,1,.778-.778A.778.778,0,0,1,420.468,190.846Z" transform="translate(-380 -170.612)"/><path class="a" d="M325.045,443.733a.778.778,0,0,0-.778.778v1.556a.778.778,0,1,0,1.556,0v-1.556A.778.778,0,0,0,325.045,443.733Z" transform="translate(-294.694 -403.265)"/><path class="a" d="M359.178,443.733a.778.778,0,0,0-.778.778v1.556a.778.778,0,0,0,1.556,0v-1.556A.778.778,0,0,0,359.178,443.733Z" transform="translate(-325.714 -403.265)"/><path class="a" d="M393.311,443.733a.778.778,0,0,0-.778.778v1.556a.778.778,0,0,0,1.556,0v-1.556A.778.778,0,0,0,393.311,443.733Z" transform="translate(-356.735 -403.265)"/><path class="a" d="M427.445,443.733a.778.778,0,0,0-.778.778v1.556a.778.778,0,1,0,1.556,0v-1.556A.778.778,0,0,0,427.445,443.733Z" transform="translate(-387.756 -403.265)"/><path class="a" d="M461.578,443.733a.778.778,0,0,0-.778.778v1.556a.778.778,0,1,0,1.556,0v-1.556A.778.778,0,0,0,461.578,443.733Z" transform="translate(-418.776 -403.265)"/></svg>