<svg xmlns="http://www.w3.org/2000/svg" width="49.303" height="56.889" viewBox="0 0 49.303 56.889"><defs><style>.a{fill:#5c5e64;}</style></defs><path class="a" d="M95.407,30.2v-3.77a.948.948,0,0,0-.948-.948H90.953l-3.838-2.559a3.792,3.792,0,1,0-5.931-3.13.948.948,0,1,0,1.9,0,1.9,1.9,0,1,1,1.9,1.9h0a.947.947,0,0,0-.526.159L79,25.478H75.5l-.034,0-.082,0H71.042L67.2,22.919a3.792,3.792,0,1,0-5.931-3.13.948.948,0,0,0,1.9,0,1.9,1.9,0,1,1,1.9,1.9h0a.947.947,0,0,0-.526.159l-5.45,3.633H54.754a4.734,4.734,0,0,0-4.6,3.591.912.912,0,0,0-.018.089L48.011,43.352a.944.944,0,0,0-.011.14V62.455a.948.948,0,0,0,.948.948h5.689a.948.948,0,0,0,.948-.948v-.948h5.689a.948.948,0,0,0,.948-.948v-.948h5.689v.948a.948.948,0,0,0,.948.948h4.266l-.472,10.386a.948.948,0,0,0,.9.99h22.8a.948.948,0,0,0,.948-.948c0-.014,0-.029,0-.043Zm-1.73,3.712a2.54,2.54,0,0,1-1.64-1.63,5.63,5.63,0,0,1-.319-1.111h1.834ZM93.51,29.27h-13.5L80,29.158q-.007-.045-.018-.089a4.736,4.736,0,0,0-.806-1.695H93.51Zm-8.533-5.5,2.557,1.7H82.42Zm-11.535,3.6L73,30.226a1.753,1.753,0,0,1-3.138.779,6.622,6.622,0,0,0,1.77-3.631Zm-13.021,0h9.291a4.741,4.741,0,0,1-9.291,0Zm4.645-3.6,2.557,1.7H62.509Zm-6.57,3.6a6.622,6.622,0,0,0,1.77,3.631,1.753,1.753,0,0,1-3.138-.779l-.439-2.852Zm1.829,32.237H55.585V41.6a.948.948,0,1,0-1.9,0V61.507H49.9V43.564L52,29.488a2.84,2.84,0,0,1,2.749-2.114h.018l.483,3.141a3.59,3.59,0,0,0,3.04,3.049,3.655,3.655,0,0,0,2.031-.249Zm1.9-1.9V32.421a6.62,6.62,0,0,0,5.689,0V57.714Zm7.585-24.4a3.656,3.656,0,0,0,2.031.249,3.59,3.59,0,0,0,3.04-3.048l.483-3.141h.018a2.84,2.84,0,0,1,2.749,2.114l2.109,14.076V61.507H76.444V41.6a.948.948,0,0,0-1.9,0V59.611H69.807ZM84.029,70.988H74.592l.353-7.763a.942.942,0,0,0,.551.178h5.689a.948.948,0,0,0,.948-.948V43.492a.947.947,0,0,0-.01-.141L80.3,31.167h3.732Zm1.9,0V31.167H89.8a7.826,7.826,0,0,0,.462,1.774,4.363,4.363,0,0,0,3.506,2.919l1.6,35.129Z" transform="translate(-48 -15.996)"/></svg>