<svg xmlns="http://www.w3.org/2000/svg" width="49.998" height="38.153" viewBox="0 0 49.998 38.153"><defs><style>.a{fill:#5c5e64;}</style></defs><g transform="translate(-461 -447)"><g transform="translate(461 447)"><path class="a" d="M299.438,159.513a.975.975,0,0,0-1.332-.357l-1.052.608-1.7-2.939,1.052-.607a.976.976,0,0,0-.975-1.69l-1.052.608-1.7-2.939,1.052-.607a.976.976,0,1,0-.975-1.69l-1.052.608-1.7-2.939,1.052-.607a.976.976,0,1,0-.975-1.69l-1.052.608-1.326-2.3a.975.975,0,1,0-1.689.976l1.326,2.3-1.052.608a.975.975,0,1,0,.975,1.689l1.052-.607,1.7,2.938-1.052.608a.975.975,0,1,0,.975,1.689l1.052-.607,1.7,2.938-1.052.608a.975.975,0,1,0,.975,1.689l1.052-.607,1.7,2.938-1.052.608a.975.975,0,1,0,.975,1.689l1.052-.607,1.326,2.3a.976.976,0,0,0,1.69-.975l-1.326-2.3,1.052-.607A.975.975,0,0,0,299.438,159.513Z" transform="translate(-257.897 -135.077)"/><path class="a" d="M48.549,77.383a.976.976,0,1,0-1.837.657,21.653,21.653,0,0,1-1.377,18.023A2.251,2.251,0,0,1,43.38,97.2h-.015A22.066,22.066,0,0,1,24.643,85.934a22.4,22.4,0,0,1-1.929-18.46l.01-.026,0-.011a20.345,20.345,0,0,1,1.52-3.351A2.251,2.251,0,0,1,26.2,62.95h.015a21.652,21.652,0,0,1,16.3,7.822A.975.975,0,1,0,44,69.51,23.6,23.6,0,0,0,26.229,61a4.2,4.2,0,0,0-3.678,2.124A22.161,22.161,0,0,0,21.2,65.955a16.937,16.937,0,0,0-9.22.169.916.916,0,0,0-.146.045,16.947,16.947,0,0,0-8.664,6.278A.992.992,0,0,0,3,72.682,16.779,16.779,0,0,0,.007,81.923a.979.979,0,0,0,0,.2c0,.052,0,.1,0,.154a16.788,16.788,0,0,0,3.292,10,.981.981,0,0,0,.179.237,16.95,16.95,0,0,0,7.877,5.707.988.988,0,0,0,.148.052,16.9,16.9,0,0,0,10.767,0,1,1,0,0,0,.15-.053,16.877,16.877,0,0,0,6.619-4.234,23.286,23.286,0,0,0,14.319,5.168h.027a4.205,4.205,0,0,0,3.651-2.124A23.6,23.6,0,0,0,48.549,77.383ZM16.88,87.231l-4.7-3.415,1.8-5.525H19.9a24.938,24.938,0,0,0,1.576,5.6Zm-6.622-3.815L6.313,84.708,1.971,81.554A14.833,14.833,0,0,1,4.4,74.095H9.712l2.472,3.393Zm-8.2.612L4.97,86.144l-1.111,3.42A14.81,14.81,0,0,1,2.057,84.028Zm18.5-16.222a23.625,23.625,0,0,0-.891,8.534h-5.9L11.3,72.966l1.655-5.094a14.981,14.981,0,0,1,7.6-.066Zm-9.927.915L9.519,72.144H5.929A14.994,14.994,0,0,1,10.631,68.721ZM5.245,91.613l1.637-5.039,3.981-1.3L15.9,88.934v4.16l-4.317,3.136A15,15,0,0,1,5.245,91.613Zm8.72,5.3L16.88,94.8l2.913,2.116a14.942,14.942,0,0,1-5.827,0Zm8.207-.684-4.317-3.136v-4.16L22.3,85.7q.309.609.652,1.206a25.13,25.13,0,0,0,4.6,5.8A14.933,14.933,0,0,1,22.172,96.231Z" transform="translate(0 -60.999)"/><path class="a" d="M459.83,183.316a.976.976,0,1,0-.69-.287A.981.981,0,0,0,459.83,183.316Z" transform="translate(-414.047 -169.61)"/></g></g></svg>