<svg xmlns="http://www.w3.org/2000/svg" width="17.994" height="17.338" viewBox="0 0 17.994 17.338"><defs><style>.a{fill:#772ce8;stroke:#772ce8;}</style></defs><g transform="translate(0.5 0.5)"><g transform="translate(0)"><path class="a" d="M16.839,15.395l-4.388-4.136a6.5,6.5,0,0,0,1.855-4.518A6.955,6.955,0,0,0,7.156,0,6.954,6.954,0,0,0,.006,6.741a6.954,6.954,0,0,0,7.15,6.741,7.39,7.39,0,0,0,4.5-1.505l4.4,4.153a.574.574,0,0,0,.778,0A.5.5,0,0,0,16.839,15.395ZM7.156,12.444a5.884,5.884,0,0,1-6.05-5.7,5.884,5.884,0,0,1,6.05-5.7,5.884,5.884,0,0,1,6.05,5.7A5.884,5.884,0,0,1,7.156,12.444Z" transform="translate(-0.006)"/></g></g></svg>