<svg height="45.361" viewBox="0 0 45.358 45.361" width="45.358" xmlns="http://www.w3.org/2000/svg"><g fill="#5c5e64" stroke="#fff" transform="translate(.5 .503)"><path d="m40.459 7.884h-15.867l3.87-5.869a1.3 1.3 0 0 0 -2.17-1.431l-4.113 6.239-4.113-6.239a1.3 1.3 0 1 0 -2.166 1.431l3.869 5.869h-15.869a3.9 3.9 0 0 0 -3.9 3.9v25.99a3.9 3.9 0 0 0 3.9 3.9h1.3v1.386a1.3 1.3 0 1 0 2.6 0v-1.388h28.76v1.386a1.3 1.3 0 1 0 2.6 0v-1.386h1.3a3.9 3.9 0 0 0 3.9-3.9v-25.989a3.9 3.9 0 0 0 -3.901-3.899zm1.3 29.889a1.3 1.3 0 0 1 -1.3 1.3h-36.559a1.3 1.3 0 0 1 -1.3-1.3v-25.99a1.3 1.3 0 0 1 1.3-1.3h36.56a1.3 1.3 0 0 1 1.3 1.3z"/><path d="m87.464 151h-26.164a1.3 1.3 0 0 0 -1.3 1.3v20.793a1.3 1.3 0 0 0 1.3 1.3h26.164a1.3 1.3 0 0 0 1.3-1.3v-20.793a1.3 1.3 0 0 0 -1.3-1.3zm-24.864 20.793v-18.193h23.564v18.194z" transform="translate(-54.802 -137.918)"/><path d="m424.568 212.3a1.3 1.3 0 1 1 -1.3-1.3 1.3 1.3 0 0 1 1.3 1.3z" transform="translate(-385.411 -192.72)"/><path d="m424.568 272.3a1.3 1.3 0 1 1 -1.3-1.3 1.3 1.3 0 0 1 1.3 1.3z" transform="translate(-385.411 -247.522)"/><path d="m424.568 332.3a1.3 1.3 0 1 1 -1.3-1.3 1.3 1.3 0 0 1 1.3 1.3z" transform="translate(-385.411 -302.324)"/></g></svg>