<svg height="40.199" viewBox="0 0 51.581 40.199" width="51.581" xmlns="http://www.w3.org/2000/svg"><g fill="#772ce8"><path d="m10 182.795h45.574v6.383h-45.574z" transform="translate(-10 -169.817)"/><path d="m47.384 56.489h-38.304a4.2 4.2 0 0 0 -4.2 4.2v.688h-.68a4.2 4.2 0 0 0 -4.2 4.2v26.9a4.2 4.2 0 0 0 4.2 4.2h38.3a4.2 4.2 0 0 0 4.2-4.2v-.677h.685a4.2 4.2 0 0 0 4.2-4.2v-26.9a4.2 4.2 0 0 0 -4.201-4.211zm-2.7 36a2.188 2.188 0 0 1 -2.184 2.184h-38.3a2.188 2.188 0 0 1 -2.183-2.188v-26.9a2.188 2.188 0 0 1 2.183-2.191h38.3a2.188 2.188 0 0 1 2.183 2.188zm4.883-4.891a2.188 2.188 0 0 1 -2.183 2.188h-.684v-24.2a4.2 4.2 0 0 0 -4.2-4.2h-35.6v-.688a2.188 2.188 0 0 1 2.18-2.198h38.3a2.188 2.188 0 0 1 2.183 2.188z" transform="translate(.001 -56.489)"/><path d="m67.18 298.444h-10.247a1.007 1.007 0 0 0 -1.007 1.007v7.731a1.008 1.008 0 0 0 1.007 1.007h10.247a1.008 1.008 0 0 0 1.007-1.007v-7.731a1.007 1.007 0 0 0 -1.007-1.007zm-1.007 7.731h-8.232v-5.716h8.231z" transform="translate(-50.291 -274.068)"/><path d="m308.838 294.769a5.243 5.243 0 1 0 5.239 5.243 5.247 5.247 0 0 0 -5.239-5.243zm0 8.472a3.228 3.228 0 1 1 3.224-3.228 3.23 3.23 0 0 1 -3.224 3.228z" transform="translate(-273.012 -270.764)"/></g></svg>