<svg xmlns="http://www.w3.org/2000/svg" width="24.667" height="42.287" viewBox="0 0 24.667 42.287"><defs><style>.a{fill:#5c5e64;}</style></defs><g transform="translate(0)"><path class="a" d="M125.167,0H112.833a6.174,6.174,0,0,0-6.167,6.167V36.12a6.174,6.174,0,0,0,6.167,6.167h12.334a6.174,6.174,0,0,0,6.167-6.167V6.167A6.174,6.174,0,0,0,125.167,0Zm4.4,36.12a4.411,4.411,0,0,1-4.4,4.4H112.833a4.411,4.411,0,0,1-4.4-4.4V6.167a4.411,4.411,0,0,1,4.4-4.4h12.334a4.411,4.411,0,0,1,4.4,4.4V36.12Z" transform="translate(-106.666)"/></g></svg>