<svg height="42.65" viewBox="0 0 42.65 42.65" width="42.65" xmlns="http://www.w3.org/2000/svg"><g fill="#5c5e64"><path d="m373.666 376.833a.833.833 0 1 1 -.833-.833.833.833 0 0 1 .833.833z" transform="translate(-341.012 -344.679)"/><path d="m173.666 226.833a.833.833 0 1 1 -.833-.833.833.833 0 0 1 .833.833z" transform="translate(-157.672 -207.174)"/><path d="m.833 42.65h17.66a.833.833 0 0 0 .833-.833v-39.317a2.5 2.5 0 0 0 -2.5-2.5h-14.326a2.5 2.5 0 0 0 -2.5 2.5v39.317a.833.833 0 0 0 .833.833zm.833-1.666v-23.824h15.994v23.824zm.834-39.318h14.327a.834.834 0 0 1 .833.833v13h-15.994v-12.999a.834.834 0 0 1 .834-.834z"/><path d="m172.833 68.83a.833.833 0 0 0 .833-.833v-7.164a.833.833 0 1 0 -1.666 0v7.167a.833.833 0 0 0 .833.83z" transform="translate(-157.672 -55.002)"/><path d="m172.833 266a.833.833 0 0 0 -.833.833v6.667a.833.833 0 1 0 1.666 0v-6.664a.833.833 0 0 0 -.833-.836z" transform="translate(-157.672 -243.842)"/><path d="m272.825 0h-19.992a.833.833 0 0 0 -.833.833v12.167a.833.833 0 0 0 .833.833h19.992a.833.833 0 0 0 .833-.833v-12.167a.833.833 0 0 0 -.833-.833zm-19.159 1.666h3.334v10.5h-3.332zm18.326 10.5h-13.328v-10.5h13.328z" transform="translate(-231.008)"/><path d="m352.833 47.164h8.33a.833.833 0 0 0 .833-.833v-5.5a.833.833 0 0 0 -.833-.833h-8.33a.833.833 0 0 0 -.833.833v5.5a.833.833 0 0 0 .833.833zm.833-5.5h6.664v3.836h-6.664z" transform="translate(-322.678 -36.668)"/><path d="m271.159 186h-16.659a2.5 2.5 0 0 0 -2.5 2.5v23.824a.833.833 0 0 0 .833.833h19.992a.833.833 0 0 0 .833-.833v-23.824a2.5 2.5 0 0 0 -2.499-2.5zm-16.66 1.666h16.66a.834.834 0 0 1 .833.833v2.501h-11.662v-.833a.833.833 0 1 0 -1.666 0v.833h-1.664v-.833a.833.833 0 1 0 -1.666 0v.833h-1.666v-2.5a.834.834 0 0 1 .832-.834zm-.833 23.824v-18.826h18.326v18.826z" transform="translate(-231.008 -170.506)"/><path d="m308.664 306a6.664 6.664 0 1 0 6.664 6.664 6.672 6.672 0 0 0 -6.664-6.664zm0 11.662a5 5 0 1 1 4.927-5.831h-1.591a.833.833 0 1 0 0 1.665h1.6a5.006 5.006 0 0 1 -4.936 4.166z" transform="translate(-276.843 -280.51)"/></g></svg>