<svg height="17.338" viewBox="0 0 17.994 17.338" width="17.994" xmlns="http://www.w3.org/2000/svg"><path d="m16.839 15.395-4.388-4.136a6.5 6.5 0 0 0 1.855-4.518 6.955 6.955 0 0 0 -7.15-6.741 6.954 6.954 0 0 0 -7.15 6.741 6.954 6.954 0 0 0 7.15 6.741 7.39 7.39 0 0 0 4.5-1.505l4.4 4.153a.574.574 0 0 0 .778 0 .5.5 0 0 0 .005-.735zm-9.683-2.951a5.884 5.884 0 0 1 -6.05-5.7 5.884 5.884 0 0 1 6.05-5.7 5.884 5.884 0 0 1 6.05 5.7 5.884 5.884 0 0 1 -6.05 5.7z" fill="#772ce8" stroke="#772ce8" transform="translate(.494 .5)"/></svg>