<svg height="46.694" viewBox="0 0 46.694 46.694" width="46.694" xmlns="http://www.w3.org/2000/svg"><g fill="#5c5e64"><path d="m44.359 0h-20.234a2.335 2.335 0 0 0 -2.335 2.335v8.565h-17.899a3.891 3.891 0 0 0 -3.891 3.886v20.234a3.891 3.891 0 0 0 3.891 3.891h8.56v3.113h-2.334a2.335 2.335 0 1 0 0 4.669h34.242a2.335 2.335 0 0 0 2.335-2.335v-42.023a2.335 2.335 0 0 0 -2.335-2.335zm-40.468 12.452h28.016a2.335 2.335 0 0 1 2.335 2.335v18.677h-32.686v-18.678a2.335 2.335 0 0 1 2.335-2.334zm-2.335 22.568h32.686a2.335 2.335 0 0 1 -2.335 2.335h-28.016a2.335 2.335 0 0 1 -2.335-2.335zm12.452 3.891h7.782v3.113h-7.782zm10.117 6.226h-14.008a.778.778 0 0 1 0-1.556h15.564a.778.778 0 0 1 0 1.556zm21.012-.778a.778.778 0 0 1 -.778.778h-16.483a2.335 2.335 0 0 0 -2.195-3.113h-2.334v-3.113h8.561a3.891 3.891 0 0 0 3.892-3.891v-20.234a3.891 3.891 0 0 0 -3.893-3.886h-8.56v-8.565a.778.778 0 0 1 .778-.778h20.234a.778.778 0 0 1 .778.778z"/><path d="m290.188 42.667h-15.565a1.556 1.556 0 0 0 -1.556 1.556v1.557a1.556 1.556 0 0 0 1.556 1.556h15.565a1.556 1.556 0 0 0 1.556-1.556v-1.557a1.556 1.556 0 0 0 -1.556-1.556zm-15.565 3.113v-1.557h15.565v1.557z" transform="translate(-248.164 -38.776)"/><path d="m420.468 124.136a2.335 2.335 0 1 0 -2.335-2.335 2.335 2.335 0 0 0 2.335 2.335zm0-3.113a.778.778 0 1 1 -.778.778.778.778 0 0 1 .778-.778z" transform="translate(-380 -108.572)"/><path d="m422.8 190.068a2.335 2.335 0 1 0 -2.335 2.335 2.335 2.335 0 0 0 2.335-2.335zm-2.335.778a.778.778 0 1 1 .778-.778.778.778 0 0 1 -.775.778z" transform="translate(-380 -170.612)"/><path d="m325.045 443.733a.778.778 0 0 0 -.778.778v1.556a.778.778 0 1 0 1.556 0v-1.556a.778.778 0 0 0 -.778-.778z" transform="translate(-294.694 -403.265)"/><path d="m359.178 443.733a.778.778 0 0 0 -.778.778v1.556a.778.778 0 0 0 1.556 0v-1.556a.778.778 0 0 0 -.778-.778z" transform="translate(-325.714 -403.265)"/><path d="m393.311 443.733a.778.778 0 0 0 -.778.778v1.556a.778.778 0 0 0 1.556 0v-1.556a.778.778 0 0 0 -.778-.778z" transform="translate(-356.735 -403.265)"/><path d="m427.445 443.733a.778.778 0 0 0 -.778.778v1.556a.778.778 0 1 0 1.556 0v-1.556a.778.778 0 0 0 -.778-.778z" transform="translate(-387.756 -403.265)"/><path d="m461.578 443.733a.778.778 0 0 0 -.778.778v1.556a.778.778 0 1 0 1.556 0v-1.556a.778.778 0 0 0 -.778-.778z" transform="translate(-418.776 -403.265)"/></g></svg>