<svg height="29.202" viewBox="0 0 29.202 29.202" width="29.202" xmlns="http://www.w3.org/2000/svg"><path d="m1171.914 161.775a.828.828 0 0 1 -.121-.009.884.884 0 0 1 -.757-1c.031-.226.813-5.576 5.156-7.148a.885.885 0 0 1 .6 1.664c-3.349 1.211-4 5.679-4.005 5.724a.884.884 0 0 1 -.873.769z" fill="#32d1f7" transform="translate(-1163.941 -134.379)"/><path d="m1176.449 131.026h1.711c.385.046.771.085 1.155.139a14.611 14.611 0 0 1 12.366 11.949c.095.549.149 1.1.224 1.658v1.711c-.044.375-.082.75-.134 1.124a14.6 14.6 0 0 1 -11.95 12.4c-.55.1-1.107.152-1.661.226h-1.711c-.385-.046-.771-.085-1.155-.14a14.608 14.608 0 0 1 -12.365-11.949c-.1-.549-.151-1.1-.225-1.657v-1.711c.044-.375.082-.751.134-1.124a14.6 14.6 0 0 1 11.951-12.4c.549-.097 1.111-.152 1.66-.226zm-2.607 16.026a6.145 6.145 0 1 1 7.414-9.783 5.884 5.884 0 0 1 2.178 4.473 6.121 6.121 0 0 1 -2.669 5.311 10.115 10.115 0 0 1 6.27 6.977 12.867 12.867 0 1 0 -19.46-.041 10.139 10.139 0 0 1 6.268-6.937zm3.7 11.466c.307-.026.849-.051 1.385-.117a12.627 12.627 0 0 0 6.5-2.791.359.359 0 0 0 .1-.28 8.305 8.305 0 0 0 -16.452 0 .384.384 0 0 0 .123.3 13.015 13.015 0 0 0 8.341 2.888zm-.217-12.125a4.432 4.432 0 1 0 -4.454-4.427 4.444 4.444 0 0 0 4.451 4.426z" fill="#772ce8" transform="translate(-1162.704 -131.026)"/></svg>